<?xml version="1.0" encoding="utf-8"?>
<!-- Generator: Adobe Illustrator 20.1.0, SVG Export Plug-In . SVG Version: 6.00 Build 0)  -->
<svg version="1.1" id="Layer_1" xmlns="http://www.w3.org/2000/svg" xmlns:xlink="http://www.w3.org/1999/xlink" x="0px" y="0px"
	 viewBox="0 0 80 75" style="enable-background:new 0 0 80 75;" xml:space="preserve">
<style type="text/css">
	.st0{fill:#E84343;}
	.st1{fill:#00A1C2;}
</style>
<g>
	<path class="st0" d="M52.7,35.6C52.6,34.3,52,33.4,51,33c0.3-0.2,0.6-0.6,0.7-1c0.1-0.4,0-0.8-0.3-1.2l-3.2-4.3
		c-0.2-0.3-0.6-0.6-1-0.6s-0.8,0.1-1.1,0.3l-2.8,2.4L42.4,27l2.4-2c0.4-0.3,0.6-0.8,0.5-1.3s-0.4-0.9-0.8-1.2l-4.7-2.4
		c-0.7-0.3-1.4-0.1-1.9,0.5l-0.7,1c-1.5-2.8-3.3-5-5.5-5.2c-3.9-0.2-5.5,0.7-6.7,1.4c-0.6,0.3-0.9,0.5-1.3,0.5
		c-0.3,0-0.7-0.1-1.1-0.2c-0.6-0.2-1.2-0.3-1.9-0.3c-4.1,0-7.9,3.6-8.1,3.8c-0.1,0.1-0.2,0.3-0.3,0.4c-3.5,0.8-6.4,2.5-8.5,5.2
		C-3.5,36.8,2,55.2,2.2,56c0.1,0.3,0.3,0.6,0.5,0.8C16.7,67.2,38.1,75,42.6,75c4.1,0,13.6-2.7,14-2.8c0.6-0.2,1-0.6,1.1-1.2
		c2.3-14.5,0.6-25.6-4.9-33C52.6,37,52.7,36.3,52.7,35.6z M51.9,42.7L51.9,42.7L51,42.8v-0.1c0.1-0.3,0.3-0.7,0.4-1
		C51.5,42,51.7,42.3,51.9,42.7z M21.3,21c0.7,0.2,1.4,0.3,2,0.3c1.3,0,2.1-0.5,2.8-0.9c1-0.6,2.1-1.2,5-1c0.5,0,1.1,0.6,1.7,1.4
		c-0.4,0.1-0.7,0.2-0.9,0.5l-3,3.5c-1.1,0-1.8,0.1-2.3,0.1c-2.9-2-6-3-9.3-3.3C18.6,21,20.1,20.6,21.3,21z M55.4,58.6
		c-0.1-1-0.9-2.8-1.9-4.5c-0.1-0.9-0.2-1.8-0.3-2.7c0.3-0.1,0.7-0.3,0.9-0.5c0.3-0.3,0.4-0.7,0.3-1.1l-0.2-1.6
		c0.9,3.2,1.3,6.8,1.3,10.8C55.4,58.7,55.4,58.7,55.4,58.6z M39,41.6l4.9-0.2l-0.6,2.3l-3,0.4c-0.1,0-0.2,0-0.3,0.1
		C39.7,43.2,39.4,42.4,39,41.6z M43.8,36.1C43.9,36.1,43.9,36.1,43.8,36.1L43.8,36.1l-0.1,2.2l-5.5,0.3l-0.4-1.3L43.8,36.1
		L43.8,36.1z M40,31l-0.2,0.2l-0.1,0.1l-1,1.2l-0.3,0.3l-1.1,1.3l-0.1,0.1c0,0.1-0.1,0.1-0.1,0.2l0,0l-1.5,0.3h-0.1
		c-0.1-0.2-0.2-0.4-0.4-0.6c0.1-0.2,0.1-0.5,0.1-0.7l0.2-0.2l0.6-0.4l0.6-0.4l0.3-0.2l0.4-0.3l0.5-0.4l1.1-0.6l0.2-0.1l0.6-0.4
		l0.8-0.5l0.2,0.4L40,31z M51,48.5l-1.5,0.1L42,49.3l0,0c-0.1,0-0.2,0-0.3,0.1L40.9,47h0.2l6.4-0.8h0.8h0.1c0.2,0,0.3,0,0.5-0.1
		c0.1,0,0.2-0.1,0.3-0.2l1.2-0.1h0.3L51,48.5L51,48.5z M49.2,38.6C49.2,38.6,49.2,38.7,49.2,38.6c-0.2,0.7-0.4,1.4-0.7,2
		c-0.3,0.7-0.5,1.3-0.8,2c-0.1,0.2-0.2,0.4-0.2,0.6l0,0h-0.1h-0.8l0.5-1.9l0.6-2.2l0.8-2.9c0.1,0,0.2-0.1,0.3-0.1
		c0.3-0.1,0.6-0.2,0.9-0.2c0,0,0,0,0,0.1c0,0.2,0,0.6-0.1,0.9C49.5,37.3,49.4,38,49.2,38.6z M46.5,32.2l-0.8,0.5L45,33.1l-1,0.6
		c-0.1,0.1-0.2,0.2-0.3,0.3l0,0l-0.5-0.5l-0.3-0.3L42.7,33l0.8-0.7l1.2-1.1l1.9-1.6l1.2,1.7L46.5,32.2z M41,24.2l-2,1.7l-1.1,0.9
		v0.1l-1.1,1l-0.4,0.3L36,28.4l-0.5,0.5l0,0L35.3,29c-0.1,0.1-0.1,0.1-0.2,0.2c0,0-0.1,0.1-0.1,0.2c-0.2,0.3-0.2,0.5-0.3,0.7
		c0,0.2,0,0.4,0.1,0.6l-0.5,0.7l-0.4-0.6l0,0l-1.6-2.6h0.9c0,0,0,0.1,0.1,0.1c0.1,0.2,0.2,0.3,0.4,0.4c0.3,0.2,0.6,0.3,1,0.3
		c0.1,0,0.3,0,0.4-0.1c0.1,0,0.2-0.1,0.3-0.1l0.2,0.1l-0.1-0.1c0.2-0.1,0.3-0.2,0.4-0.4l0.2-0.2l0.3-0.5l0.1-0.1l0.9-1.2l0.2-0.3
		l1-1.4l0.9-1.2L41,24.2z M14.6,24.7c0.5,0,1-0.1,1.6-0.1c3.5,0,6.6,1.2,9.5,3.2C39,37.8,42.9,67,42.9,67.4c0.1,0.8,0.8,1.4,1.6,1.3
		l7.5-0.8c0.1,0,0.3-0.1,0.4-0.1c0.8,0,1.9-1.2,2.6-3.1c-0.1,1.6-0.3,3.2-0.6,4.9C51.3,70.5,45,72,42.2,72C39,72,18.3,64.7,4.6,54.7
		C3.8,51.9,0,36.6,5.8,29C7.9,26.4,10.7,25,14.6,24.7z"/>
	<path class="st0" d="M8.7,52.3L8.7,52.3c0.8,0,1.5-0.7,1.5-1.5s-0.7-1.5-1.5-1.5S7.2,50,7.2,50.8C7.3,51.7,7.9,52.3,8.7,52.3z"/>
	<path class="st0" d="M33.1,63.8L33.1,63.8c0.8,0,1.5-0.7,1.5-1.5s-0.7-1.5-1.5-1.5s-1.5,0.7-1.5,1.5C31.7,63.1,32.3,63.8,33.1,63.8
		z"/>
	<path class="st0" d="M16.9,47.9L16.9,47.9c0.8,0,1.5-0.7,1.5-1.5s-0.7-1.5-1.5-1.5s-1.5,0.7-1.5,1.5C15.4,47.3,16.1,47.9,16.9,47.9
		z"/>
	<path class="st0" d="M23.8,56.1L23.8,56.1c0.8,0,1.5-0.7,1.5-1.5s-0.7-1.5-1.5-1.5s-1.5,0.7-1.5,1.5C22.3,55.5,23,56.1,23.8,56.1z"
		/>
	<path class="st0" d="M27.7,42.9L27.7,42.9c0.8,0,1.5-0.7,1.5-1.5s-0.7-1.5-1.5-1.5s-1.5,0.7-1.5,1.5C26.2,42.3,26.9,42.9,27.7,42.9
		z"/>
	<path class="st0" d="M10.1,38L10.1,38c0.8,0,1.5-0.7,1.5-1.5S10.9,35,10.1,35s-1.5,0.7-1.5,1.5S9.3,38,10.1,38z"/>
	<path class="st0" d="M19.2,33.6L19.2,33.6c0.8,0,1.5-0.7,1.5-1.5s-0.7-1.5-1.5-1.5s-1.5,0.7-1.5,1.5C17.8,33,18.4,33.6,19.2,33.6z"
		/>
	<path class="st1" d="M58.6,2.1c-0.7-0.4-1.6,0-2,0.7l-5,10.4c-0.4,0.7,0,1.6,0.7,2c0.2,0.1,0.4,0.1,0.6,0.1c0.6,0,1.1-0.3,1.4-0.8
		l5-10.4C59.7,3.4,59.3,2.5,58.6,2.1z"/>
	<path class="st1" d="M45,10.9C45,10.9,45.1,10.9,45,10.9c0.9,0,1.5-0.7,1.5-1.5l-0.2-7.9c0-0.8-0.7-1.5-1.5-1.5s-1.5,0.7-1.5,1.5
		l0.2,7.9C43.5,10.2,44.2,10.9,45,10.9z"/>
	<path class="st1" d="M78,28.8c-0.2-0.8-1.1-1.3-1.8-1l-8.6,2.4c-0.8,0.2-1.3,1.1-1,1.8c0.2,0.7,0.8,1.1,1.4,1.1
		c0.1,0,0.3,0,0.4-0.1l8.6-2.4C77.8,30.4,78.3,29.6,78,28.8z"/>
	<path class="st1" d="M78.5,38.4l-7.6-0.1l0,0c-0.8,0-1.5,0.7-1.5,1.5s0.7,1.5,1.5,1.5l7.6,0.1l0,0c0.8,0,1.5-0.7,1.5-1.5
		C79.9,39.1,79.3,38.4,78.5,38.4z"/>
	<path class="st1" d="M67.9,16.7c-0.5-0.7-1.5-0.8-2.1-0.2l-5.3,4.2c-0.6,0.5-0.8,1.5-0.2,2.1c0.3,0.4,0.7,0.6,1.2,0.6
		c0.3,0,0.7-0.1,0.9-0.3l5.3-4.2C68.3,18.3,68.4,17.4,67.9,16.7z"/>
</g>
</svg>
