<svg id="wpcom-logo" xmlns="http://www.w3.org/2000/svg" viewBox="530.9 588.7 152 28"><style>.st0{fill:#fff}</style><title>wpcom-white</title><g id="Page-1"><g id="wpcom-white"><path id="Fill-1" class="st0" d="M550.2 612.2l3.4-9.9c.6-1.6.9-2.9.9-4 0-.4 0-.8-.1-1.2.9 1.6 1.4 3.4 1.4 5.4-.1 4.1-2.3 7.8-5.6 9.7zm-4.1-15c.7 0 1.3-.1 1.3-.1.6-.1.5-1-.1-.9 0 0-1.8.1-3 .1-1.1 0-3-.1-3-.1-.6 0-.7.9-.1.9 0 0 .6.1 1.2.1l1.8 4.8-2.5 7.4-4.1-12.2c.7 0 1.3-.1 1.3-.1.6-.1.5-1-.1-.9 0 0-1.8.1-3 .1h-.7c2-3.1 5.5-5.1 9.4-5.1 2.9 0 5.6 1.1 7.6 3h-.1c-1.1 0-1.9 1-1.9 2 0 .9.5 1.7 1.1 2.6.4.7.9 1.7.9 3.1 0 1-.3 2.2-.9 3.6l-1.1 3.7-4-12zm-1.6 16.5c-1.1 0-2.2-.2-3.2-.5l3.4-9.8 3.5 9.5c0 .1.1.1.1.2-1.2.4-2.5.6-3.8.6zm-11.2-11.2c0-1.6.3-3.2 1-4.6l5.4 14.7c-3.9-1.8-6.4-5.7-6.4-10.1zm11.2-12.5c-6.9 0-12.5 5.6-12.5 12.5s5.6 12.5 12.5 12.5 12.5-5.6 12.5-12.5-5.6-12.5-12.5-12.5z"/><path id="Fill-3" class="st0" d="M572.5 608.8h-1.4l-2.5-8.4c-.1-.4-.3-.8-.4-1.4-.1-.6-.2-.9-.2-1-.1.8-.3 1.6-.6 2.5l-2.4 8.3h-1.4l-3.3-12.5h1.5l2 7.7c.3 1.1.5 2.1.6 2.9.2-1 .4-2.1.7-3.1l2.2-7.6h1.5l2.4 7.7c.3.9.5 1.9.7 3 .1-.8.3-1.8.6-3l2-7.7h1.5l-3.5 12.6z"/><path id="Fill-5" class="st0" d="M577.6 604.1c0 1.2.2 2.1.7 2.7.5.6 1.2.9 2.1.9.9 0 1.6-.3 2.1-.9.5-.6.7-1.5.7-2.7 0-1.2-.2-2.1-.7-2.7-.5-.6-1.2-.9-2.1-.9-.9 0-1.6.3-2.1.9-.5.5-.7 1.4-.7 2.7m7.1 0c0 1.5-.4 2.7-1.2 3.6-.8.9-1.8 1.3-3.2 1.3-.8 0-1.6-.2-2.2-.6-.7-.4-1.2-1-1.5-1.7-.4-.7-.5-1.6-.5-2.6 0-1.5.4-2.7 1.1-3.6.8-.9 1.8-1.3 3.2-1.3 1.3 0 2.4.4 3.1 1.3.8.9 1.2 2.1 1.2 3.6"/><path id="Fill-7" class="st0" d="M590.9 599.2c.4 0 .8 0 1.1.1l-.2 1.3c-.4-.1-.7-.1-1-.1-.8 0-1.4.3-1.9.9-.5.6-.8 1.4-.8 2.3v5h-1.4v-9.4h1.2l.2 1.7h.1c.3-.6.8-1.1 1.3-1.4.3-.2.8-.4 1.4-.4"/><path id="Fill-9" class="st0" d="M596.9 607.7c1 0 1.7-.3 2.1-.8.4-.5.7-1.4.7-2.6v-.3c0-1.3-.2-2.3-.7-2.8-.4-.6-1.1-.9-2.1-.9-.8 0-1.5.3-1.9 1-.4.6-.7 1.6-.7 2.7 0 1.2.2 2.1.7 2.7.4.7 1 1 1.9 1zm2.8-.2c-.7 1-1.7 1.4-3 1.4-1.2 0-2.2-.4-2.9-1.3-.7-.8-1-2-1-3.6 0-1.5.3-2.7 1-3.6.7-.9 1.6-1.3 2.9-1.3 1.3 0 2.2.5 2.9 1.4h.1l-.1-.7v-4.5h1.4v13.3h-1.2l-.1-1.1z"/><path id="Fill-11" class="st0" d="M605.2 602.6h1.3c1.3 0 2.2-.2 2.8-.6.6-.4.9-1.1.9-2 0-.8-.3-1.4-.8-1.8-.5-.4-1.4-.6-2.5-.6h-1.6v5zm6.5-2.7c0 1.3-.4 2.2-1.3 2.9-.9.7-2.1 1-3.7 1h-1.5v4.9h-1.5v-12.5h3.2c3.2 0 4.8 1.3 4.8 3.7z"/><path id="Fill-13" class="st0" d="M617.7 599.2c.4 0 .8 0 1.1.1l-.2 1.3c-.4-.1-.7-.1-1-.1-.8 0-1.4.3-1.9.9-.5.6-.8 1.4-.8 2.3v5h-1.4v-9.4h1.2l.2 1.7h.1c.3-.6.8-1.1 1.3-1.4.3-.2.9-.4 1.4-.4"/><path id="Fill-15" class="st0" d="M623.7 600.4c-.8 0-1.4.2-1.8.7-.4.5-.7 1.2-.8 2h4.9c0-.9-.2-1.6-.6-2.1-.4-.4-1-.6-1.7-.6m.4 8.5c-1.4 0-2.5-.4-3.3-1.3-.8-.8-1.2-2-1.2-3.5s.4-2.7 1.1-3.6c.7-.9 1.7-1.3 3-1.3 1.2 0 2.1.4 2.8 1.2.7.8 1 1.8 1 3.1v.9H621c0 1.1.3 1.9.8 2.5.5.6 1.3.9 2.2.9 1 0 2-.2 3-.6v1.3c-.5.2-1 .4-1.4.5-.4-.1-.9-.1-1.5-.1"/><path id="Fill-17" class="st0" d="M635.8 606.2c0 .9-.3 1.5-1 2s-1.6.7-2.7.7c-1.2 0-2.2-.2-2.9-.6V607c.5.2.9.4 1.5.5.5.1 1 .2 1.5.2.7 0 1.3-.1 1.7-.4.4-.2.6-.6.6-1.1 0-.4-.2-.7-.5-.9-.3-.3-.9-.6-1.9-.9-.9-.3-1.5-.6-1.9-.9-.4-.2-.6-.5-.8-.8-.2-.3-.3-.7-.3-1.1 0-.8.3-1.4.9-1.8.6-.4 1.5-.7 2.6-.7 1 0 2 .2 3 .6l-.5 1.2c-.9-.4-1.8-.6-2.6-.6-.7 0-1.2.1-1.5.3-.3.2-.5.5-.5.9 0 .3.1.5.2.6.1.2.3.3.6.5s.8.4 1.6.7c1.1.4 1.9.8 2.3 1.2.4.6.6 1.1.6 1.7"/><path id="Fill-19" class="st0" d="M644 606.2c0 .9-.3 1.5-1 2s-1.6.7-2.7.7c-1.2 0-2.2-.2-2.9-.6V607c.5.2.9.4 1.5.5.5.1 1 .2 1.5.2.7 0 1.3-.1 1.7-.4.4-.2.6-.6.6-1.1 0-.4-.2-.7-.5-.9-.3-.3-.9-.6-1.9-.9-.9-.3-1.5-.6-1.9-.9-.4-.2-.6-.5-.8-.8-.2-.3-.3-.7-.3-1.1 0-.8.3-1.4.9-1.8.6-.4 1.5-.7 2.6-.7 1 0 2 .2 3 .6l-.5 1.2c-.9-.4-1.8-.6-2.6-.6-.7 0-1.2.1-1.5.3-.3.2-.5.5-.5.9 0 .3.1.5.2.6.1.2.3.3.6.5s.8.4 1.6.7c1.1.4 1.9.8 2.3 1.2.4.6.6 1.1.6 1.7"/><path id="Fill-21" class="st0" d="M646.3 607.8c0-.4.1-.7.3-.9.2-.2.4-.3.7-.3.3 0 .6.1.8.3.2.2.3.5.3.9s-.1.7-.3.9-.4.3-.8.3c-.3 0-.5-.1-.7-.3-.2-.2-.3-.4-.3-.9"/><path id="Fill-23" class="st0" d="M654.4 608.9c-1.4 0-2.4-.4-3.2-1.3-.7-.8-1.1-2-1.1-3.5 0-1.6.4-2.8 1.1-3.6.8-.9 1.8-1.3 3.2-1.3.5 0 .9 0 1.4.1.5.1.8.2 1.1.3l-.4 1.2c-.3-.1-.7-.2-1-.3-.4-.1-.7-.1-1-.1-1.9 0-2.9 1.2-2.9 3.6 0 1.2.2 2 .7 2.7.5.6 1.2.9 2.1.9.8 0 1.6-.2 2.4-.5v1.3c-.6.4-1.4.5-2.4.5"/><path id="Fill-25" class="st0" d="M659.7 604.1c0 1.2.2 2.1.7 2.7.5.6 1.2.9 2.1.9.9 0 1.6-.3 2.1-.9.5-.6.7-1.5.7-2.7 0-1.2-.2-2.1-.7-2.7-.5-.6-1.2-.9-2.1-.9-.9 0-1.6.3-2.1.9-.5.5-.7 1.4-.7 2.7m7.1 0c0 1.5-.4 2.7-1.2 3.6-.8.9-1.8 1.3-3.2 1.3-.8 0-1.6-.2-2.2-.6-.7-.4-1.2-1-1.5-1.7-.4-.7-.5-1.6-.5-2.6 0-1.5.4-2.7 1.1-3.6.8-.9 1.8-1.3 3.2-1.3 1.3 0 2.4.4 3.1 1.3.9.9 1.2 2.1 1.2 3.6"/><path id="Fill-27" class="st0" d="M680.6 608.8v-6.1c0-.7-.2-1.3-.5-1.7-.3-.4-.8-.6-1.5-.6-.9 0-1.5.3-2 .8-.4.5-.6 1.3-.6 2.3v5.2h-1.4v-6.1c0-.7-.2-1.3-.5-1.7-.3-.4-.8-.6-1.5-.6-.9 0-1.5.3-2 .8-.4.5-.6 1.4-.6 2.6v4.9h-1.4v-9.4h1.2l.2 1.3h.1c.3-.5.6-.8 1.1-1.1.5-.3 1-.4 1.6-.4 1.5 0 2.4.5 2.9 1.6h.1c.3-.5.7-.9 1.2-1.2.5-.3 1.1-.4 1.8-.4 1.1 0 1.9.3 2.4.8s.8 1.4.8 2.6v6.1h-1.4z"/></g></g></svg>